# Blender 4.3.2
# www.blender.org
mtllib 112.mtl
o Цилиндр
v 0.000000 -0.235928 -1.000000
v 0.000000 0.735928 -1.000000
v 0.195090 -0.235928 -0.980785
v 0.195090 0.735928 -0.980785
v 0.382683 -0.235928 -0.923880
v 0.382683 0.735928 -0.923880
v 0.555570 -0.235928 -0.831470
v 0.555570 0.735928 -0.831470
v 0.707107 -0.235928 -0.707107
v 0.707107 0.735928 -0.707107
v 0.831470 -0.235928 -0.555570
v 0.831470 0.735928 -0.555570
v 0.923880 -0.235928 -0.382683
v 0.923880 0.735928 -0.382683
v 0.980785 -0.235928 -0.195090
v 0.980785 0.735928 -0.195090
v 1.000000 -0.235928 0.000000
v 1.000000 0.735928 0.000000
v 0.980785 -0.235928 0.195090
v 0.980785 0.735928 0.195090
v 0.923880 -0.235928 0.382683
v 0.923880 0.735928 0.382683
v 0.831470 -0.235928 0.555570
v 0.831470 0.735928 0.555570
v 0.707107 -0.235928 0.707107
v 0.707107 0.735928 0.707107
v 0.555570 -0.235928 0.831470
v 0.555570 0.735928 0.831470
v 0.382683 -0.235928 0.923880
v 0.382683 0.735928 0.923880
v 0.195090 -0.235928 0.980785
v 0.195090 0.735928 0.980785
v 0.000000 -0.235928 1.000000
v 0.000000 0.735928 1.000000
v -0.195090 -0.235928 0.980785
v -0.195090 0.735928 0.980785
v -0.382683 -0.235928 0.923880
v -0.382683 0.735928 0.923880
v -0.555570 -0.235928 0.831470
v -0.555570 0.735928 0.831470
v -0.707107 -0.235928 0.707107
v -0.707107 0.735928 0.707107
v -0.831470 -0.235928 0.555570
v -0.831470 0.735928 0.555570
v -0.923880 -0.235928 0.382683
v -0.923880 0.735928 0.382683
v -0.980785 -0.235928 0.195090
v -0.980785 0.735928 0.195090
v -1.000000 -0.235928 0.000000
v -1.000000 0.735928 0.000000
v -0.980785 -0.235928 -0.195090
v -0.980785 0.735928 -0.195090
v -0.923880 -0.235928 -0.382683
v -0.923880 0.735928 -0.382683
v -0.831470 -0.235928 -0.555570
v -0.831470 0.735928 -0.555570
v -0.707107 -0.235928 -0.707107
v -0.707107 0.735928 -0.707107
v -0.555570 -0.235928 -0.831470
v -0.555570 0.735928 -0.831470
v -0.382683 -0.235928 -0.923880
v -0.382683 0.735928 -0.923880
v -0.195090 -0.235928 -0.980785
v -0.195090 0.735928 -0.980785
vn 0.0980 -0.0000 -0.9952
vn 0.2903 -0.0000 -0.9569
vn 0.4714 -0.0000 -0.8819
vn 0.6344 -0.0000 -0.7730
vn 0.7730 -0.0000 -0.6344
vn 0.8819 -0.0000 -0.4714
vn 0.9569 -0.0000 -0.2903
vn 0.9952 -0.0000 -0.0980
vn 0.9952 -0.0000 0.0980
vn 0.9569 -0.0000 0.2903
vn 0.8819 -0.0000 0.4714
vn 0.7730 -0.0000 0.6344
vn 0.6344 -0.0000 0.7730
vn 0.4714 -0.0000 0.8819
vn 0.2903 -0.0000 0.9569
vn 0.0980 -0.0000 0.9952
vn -0.0980 -0.0000 0.9952
vn -0.2903 -0.0000 0.9569
vn -0.4714 -0.0000 0.8819
vn -0.6344 -0.0000 0.7730
vn -0.7730 -0.0000 0.6344
vn -0.8819 -0.0000 0.4714
vn -0.9569 -0.0000 0.2903
vn -0.9952 -0.0000 0.0980
vn -0.9952 -0.0000 -0.0980
vn -0.9569 -0.0000 -0.2903
vn -0.8819 -0.0000 -0.4714
vn -0.7730 -0.0000 -0.6344
vn -0.6344 -0.0000 -0.7730
vn -0.4714 -0.0000 -0.8819
vn -0.0000 1.0000 -0.0000
vn -0.2903 -0.0000 -0.9569
vn -0.0980 -0.0000 -0.9952
vn -0.0000 -1.0000 -0.0000
vt 1.000000 0.500000
vt 1.000000 1.000000
vt 0.968750 1.000000
vt 0.968750 0.500000
vt 0.937500 1.000000
vt 0.937500 0.500000
vt 0.906250 1.000000
vt 0.906250 0.500000
vt 0.875000 1.000000
vt 0.875000 0.500000
vt 0.843750 1.000000
vt 0.843750 0.500000
vt 0.812500 1.000000
vt 0.812500 0.500000
vt 0.781250 1.000000
vt 0.781250 0.500000
vt 0.750000 1.000000
vt 0.750000 0.500000
vt 0.718750 1.000000
vt 0.718750 0.500000
vt 0.687500 1.000000
vt 0.687500 0.500000
vt 0.656250 1.000000
vt 0.656250 0.500000
vt 0.625000 1.000000
vt 0.625000 0.500000
vt 0.593750 1.000000
vt 0.593750 0.500000
vt 0.562500 1.000000
vt 0.562500 0.500000
vt 0.531250 1.000000
vt 0.531250 0.500000
vt 0.500000 1.000000
vt 0.500000 0.500000
vt 0.468750 1.000000
vt 0.468750 0.500000
vt 0.437500 1.000000
vt 0.437500 0.500000
vt 0.406250 1.000000
vt 0.406250 0.500000
vt 0.375000 1.000000
vt 0.375000 0.500000
vt 0.343750 1.000000
vt 0.343750 0.500000
vt 0.312500 1.000000
vt 0.312500 0.500000
vt 0.281250 1.000000
vt 0.281250 0.500000
vt 0.250000 1.000000
vt 0.250000 0.500000
vt 0.218750 1.000000
vt 0.218750 0.500000
vt 0.187500 1.000000
vt 0.187500 0.500000
vt 0.156250 1.000000
vt 0.156250 0.500000
vt 0.125000 1.000000
vt 0.125000 0.500000
vt 0.093750 1.000000
vt 0.093750 0.500000
vt 0.062500 1.000000
vt 0.062500 0.500000
vt 0.296822 0.485388
vt 0.250000 0.490000
vt 0.203178 0.485388
vt 0.158156 0.471731
vt 0.116663 0.449553
vt 0.080294 0.419706
vt 0.050447 0.383337
vt 0.028269 0.341844
vt 0.014612 0.296822
vt 0.010000 0.250000
vt 0.014612 0.203178
vt 0.028269 0.158156
vt 0.050447 0.116663
vt 0.080294 0.080294
vt 0.116663 0.050447
vt 0.158156 0.028269
vt 0.203178 0.014612
vt 0.250000 0.010000
vt 0.296822 0.014612
vt 0.341844 0.028269
vt 0.383337 0.050447
vt 0.419706 0.080294
vt 0.449553 0.116663
vt 0.471731 0.158156
vt 0.485388 0.203178
vt 0.490000 0.250000
vt 0.485388 0.296822
vt 0.471731 0.341844
vt 0.449553 0.383337
vt 0.419706 0.419706
vt 0.383337 0.449553
vt 0.341844 0.471731
vt 0.031250 1.000000
vt 0.031250 0.500000
vt 0.000000 1.000000
vt 0.000000 0.500000
vt 0.750000 0.490000
vt 0.796822 0.485388
vt 0.841844 0.471731
vt 0.883337 0.449553
vt 0.919706 0.419706
vt 0.949553 0.383337
vt 0.971731 0.341844
vt 0.985388 0.296822
vt 0.990000 0.250000
vt 0.985388 0.203178
vt 0.971731 0.158156
vt 0.949553 0.116663
vt 0.919706 0.080294
vt 0.883337 0.050447
vt 0.841844 0.028269
vt 0.796822 0.014612
vt 0.750000 0.010000
vt 0.703178 0.014612
vt 0.658156 0.028269
vt 0.616663 0.050447
vt 0.580294 0.080294
vt 0.550447 0.116663
vt 0.528269 0.158156
vt 0.514612 0.203178
vt 0.510000 0.250000
vt 0.514612 0.296822
vt 0.528269 0.341844
vt 0.550447 0.383337
vt 0.580294 0.419706
vt 0.616663 0.449553
vt 0.658156 0.471731
vt 0.703178 0.485388
s 0
f 1/1/1 2/2/1 4/3/1 3/4/1
f 3/4/2 4/3/2 6/5/2 5/6/2
f 5/6/3 6/5/3 8/7/3 7/8/3
f 7/8/4 8/7/4 10/9/4 9/10/4
f 9/10/5 10/9/5 12/11/5 11/12/5
f 11/12/6 12/11/6 14/13/6 13/14/6
f 13/14/7 14/13/7 16/15/7 15/16/7
f 15/16/8 16/15/8 18/17/8 17/18/8
f 17/18/9 18/17/9 20/19/9 19/20/9
f 19/20/10 20/19/10 22/21/10 21/22/10
f 21/22/11 22/21/11 24/23/11 23/24/11
f 23/24/12 24/23/12 26/25/12 25/26/12
f 25/26/13 26/25/13 28/27/13 27/28/13
f 27/28/14 28/27/14 30/29/14 29/30/14
f 29/30/15 30/29/15 32/31/15 31/32/15
f 31/32/16 32/31/16 34/33/16 33/34/16
f 33/34/17 34/33/17 36/35/17 35/36/17
f 35/36/18 36/35/18 38/37/18 37/38/18
f 37/38/19 38/37/19 40/39/19 39/40/19
f 39/40/20 40/39/20 42/41/20 41/42/20
f 41/42/21 42/41/21 44/43/21 43/44/21
f 43/44/22 44/43/22 46/45/22 45/46/22
f 45/46/23 46/45/23 48/47/23 47/48/23
f 47/48/24 48/47/24 50/49/24 49/50/24
f 49/50/25 50/49/25 52/51/25 51/52/25
f 51/52/26 52/51/26 54/53/26 53/54/26
f 53/54/27 54/53/27 56/55/27 55/56/27
f 55/56/28 56/55/28 58/57/28 57/58/28
f 57/58/29 58/57/29 60/59/29 59/60/29
f 59/60/30 60/59/30 62/61/30 61/62/30
f 4/63/31 2/64/31 64/65/31 62/66/31 60/67/31 58/68/31 56/69/31 54/70/31 52/71/31 50/72/31 48/73/31 46/74/31 44/75/31 42/76/31 40/77/31 38/78/31 36/79/31 34/80/31 32/81/31 30/82/31 28/83/31 26/84/31 24/85/31 22/86/31 20/87/31 18/88/31 16/89/31 14/90/31 12/91/31 10/92/31 8/93/31 6/94/31
f 61/62/32 62/61/32 64/95/32 63/96/32
f 63/96/33 64/95/33 2/97/33 1/98/33
f 1/99/34 3/100/34 5/101/34 7/102/34 9/103/34 11/104/34 13/105/34 15/106/34 17/107/34 19/108/34 21/109/34 23/110/34 25/111/34 27/112/34 29/113/34 31/114/34 33/115/34 35/116/34 37/117/34 39/118/34 41/119/34 43/120/34 45/121/34 47/122/34 49/123/34 51/124/34 53/125/34 55/126/34 57/127/34 59/128/34 61/129/34 63/130/34
o Цилиндр.001
v 0.000000 0.749885 -0.827313
v 0.000000 0.874644 -0.827313
v 0.167910 0.749885 -0.811416
v 0.167910 0.874644 -0.811416
v 0.329367 0.749885 -0.764337
v 0.329367 0.874644 -0.764337
v 0.478167 0.749885 -0.687886
v 0.478167 0.874644 -0.687886
v 0.608591 0.749885 -0.584999
v 0.608591 0.874644 -0.584999
v 0.715628 0.749885 -0.459630
v 0.715628 0.874644 -0.459630
v 0.795163 0.749885 -0.316599
v 0.795163 0.874644 -0.316599
v 0.844141 0.749885 -0.161401
v 0.844141 0.874644 -0.161401
v 0.860678 0.749885 0.000000
v 0.860678 0.874644 0.000000
v 0.844141 0.749885 0.161401
v 0.844141 0.874644 0.161401
v 0.795163 0.749885 0.316599
v 0.795163 0.874644 0.316599
v 0.715628 0.749885 0.459630
v 0.715628 0.874644 0.459630
v 0.608591 0.749885 0.584999
v 0.608591 0.874644 0.584999
v 0.478167 0.749885 0.687886
v 0.478167 0.874644 0.687886
v 0.329367 0.749885 0.764337
v 0.329367 0.874644 0.764337
v 0.167910 0.749885 0.811416
v 0.167910 0.874644 0.811416
v 0.000000 0.749885 0.827313
v 0.000000 0.874644 0.827313
v -0.167910 0.749885 0.811416
v -0.167910 0.874644 0.811416
v -0.329367 0.749885 0.764337
v -0.329367 0.874644 0.764337
v -0.478167 0.749885 0.687886
v -0.478167 0.874644 0.687886
v -0.608591 0.749885 0.584999
v -0.608591 0.874644 0.584999
v -0.715628 0.749885 0.459630
v -0.715628 0.874644 0.459630
v -0.795163 0.749885 0.316599
v -0.795163 0.874644 0.316599
v -0.844141 0.749885 0.161401
v -0.844141 0.874644 0.161401
v -0.860678 0.749885 0.000000
v -0.860678 0.874644 0.000000
v -0.844141 0.749885 -0.161401
v -0.844141 0.874644 -0.161401
v -0.795163 0.749885 -0.316599
v -0.795163 0.874644 -0.316599
v -0.715628 0.749885 -0.459630
v -0.715628 0.874644 -0.459630
v -0.608591 0.749885 -0.584999
v -0.608591 0.874644 -0.584999
v -0.478167 0.749885 -0.687886
v -0.478167 0.874644 -0.687886
v -0.329367 0.749885 -0.764337
v -0.329367 0.874644 -0.764337
v -0.167910 0.749885 -0.811416
v -0.167910 0.874644 -0.811416
v -0.710676 1.630686 0.711798
v -0.710676 1.630686 0.244509
v 0.710676 1.630686 0.711798
v 0.710676 1.630686 0.244509
v 0.011102 2.697084 0.474504
v -0.710676 2.155556 0.711798
v -0.101809 2.690417 0.511625
v -0.211940 2.670580 0.547831
v -0.316579 2.638061 0.582233
v -0.413149 2.593661 0.613982
v -0.499272 2.538474 0.642296
v -0.572829 2.473858 0.666479
v -0.632007 2.401404 0.685934
v -0.675350 2.322897 0.700184
v -0.701790 2.240269 0.708876
v 0.011102 2.697084 0.481803
v -0.710676 2.155556 0.244509
v -0.101809 2.690417 0.444682
v -0.211940 2.670579 0.408475
v -0.316579 2.638061 0.374074
v -0.413149 2.593661 0.342325
v -0.499272 2.538474 0.314011
v -0.572829 2.473858 0.289828
v -0.632007 2.401404 0.270373
v -0.675350 2.322897 0.256123
v -0.701790 2.240269 0.247431
v -0.011102 2.697084 0.474504
v 0.710676 2.155557 0.711798
v 0.101809 2.690417 0.511625
v 0.211940 2.670580 0.547831
v 0.316579 2.638061 0.582233
v 0.413149 2.593662 0.613982
v 0.499272 2.538474 0.642296
v 0.572829 2.473859 0.666479
v 0.632007 2.401405 0.685934
v 0.675350 2.322898 0.700184
v 0.701790 2.240270 0.708876
v -0.011102 2.697084 0.481803
v 0.710676 2.155556 0.244509
v 0.101809 2.690417 0.444682
v 0.211940 2.670580 0.408475
v 0.316579 2.638061 0.374074
v 0.413149 2.593661 0.342325
v 0.499272 2.538474 0.314011
v 0.572829 2.473858 0.289828
v 0.632007 2.401404 0.270373
v 0.675350 2.322897 0.256123
v 0.701790 2.240269 0.247431
v -0.731550 0.872408 0.735281
v -0.731550 1.646816 0.735281
v -0.731550 0.872408 -0.735281
v -0.731550 1.646816 -0.735281
v 0.731550 0.872408 0.735281
v 0.731550 1.646816 0.735281
v 0.731550 0.872408 -0.735281
v 0.731550 1.646816 -0.735281
vn 0.0943 -0.0000 -0.9955
vn 0.2799 -0.0000 -0.9600
vn 0.4570 -0.0000 -0.8895
vn 0.6193 -0.0000 -0.7851
vn 0.7605 -0.0000 -0.6493
vn 0.8740 -0.0000 -0.4860
vn 0.9536 -0.0000 -0.3010
vn 0.9948 -0.0000 -0.1019
vn 0.9948 -0.0000 0.1019
vn 0.9536 -0.0000 0.3010
vn 0.8740 -0.0000 0.4860
vn 0.7605 -0.0000 0.6493
vn 0.6193 -0.0000 0.7851
vn 0.4570 -0.0000 0.8895
vn 0.2799 -0.0000 0.9600
vn 0.0943 -0.0000 0.9955
vn -0.0943 -0.0000 0.9955
vn -0.2799 -0.0000 0.9600
vn -0.4570 -0.0000 0.8895
vn -0.6193 -0.0000 0.7851
vn -0.7605 -0.0000 0.6493
vn -0.8740 -0.0000 0.4860
vn -0.9536 -0.0000 0.3010
vn -0.9948 -0.0000 0.1019
vn -0.9948 -0.0000 -0.1019
vn -0.9536 -0.0000 -0.3010
vn -0.8740 -0.0000 -0.4860
vn -0.7605 -0.0000 -0.6493
vn -0.6193 -0.0000 -0.7851
vn -0.4570 -0.0000 -0.8895
vn -0.0000 1.0000 -0.0000
vn -0.2799 -0.0000 -0.9600
vn -0.0943 -0.0000 -0.9955
vn -0.0000 -1.0000 -0.0000
vn 1.0000 -0.0000 -0.0000
vn -1.0000 -0.0000 -0.0000
vn -0.0000 -0.0000 -1.0000
vn -0.0589 0.9983 -0.0000
vn -0.1773 0.9842 -0.0000
vn -0.2968 0.9549 -0.0000
vn -0.4177 0.9086 -0.0000
vn -0.5395 0.8420 -0.0000
vn -0.6600 0.7513 -0.0000
vn -0.7745 0.6326 -0.0000
vn -0.8754 0.4833 -0.0000
vn -0.9524 0.3048 -0.0000
vn -0.9945 0.1043 -0.0000
vn -0.0000 0.9843 -0.1768
vn -0.0000 0.8770 -0.4805
vn -0.0000 0.7267 -0.6869
vn -0.0000 0.5817 -0.8134
vn -0.0000 0.4565 -0.8897
vn -0.0000 0.3505 -0.9366
vn -0.0000 0.2593 -0.9658
vn -0.0000 0.1786 -0.9839
vn -0.0000 0.1046 -0.9945
vn -0.0000 0.0345 -0.9994
vn 0.0589 0.9983 -0.0000
vn 0.1773 0.9842 -0.0000
vn 0.2968 0.9549 -0.0000
vn 0.4177 0.9086 -0.0000
vn 0.5395 0.8420 -0.0000
vn 0.6600 0.7513 -0.0000
vn 0.7745 0.6326 -0.0000
vn 0.8754 0.4833 -0.0000
vn 0.9524 0.3048 -0.0000
vn 0.9945 0.1043 -0.0000
vn -0.0000 0.9843 0.1768
vn -0.0000 0.8770 0.4805
vn -0.0000 0.7267 0.6869
vn -0.0000 0.5817 0.8134
vn -0.0000 0.4565 0.8897
vn -0.0000 0.3505 0.9366
vn -0.0000 0.2593 0.9658
vn -0.0000 0.1786 0.9839
vn -0.0000 0.1046 0.9945
vn -0.0000 0.0345 0.9994
vn -0.0000 -0.0000 1.0000
vt 1.000000 0.500000
vt 1.000000 1.000000
vt 0.968750 1.000000
vt 0.968750 0.500000
vt 0.937500 1.000000
vt 0.937500 0.500000
vt 0.906250 1.000000
vt 0.906250 0.500000
vt 0.875000 1.000000
vt 0.875000 0.500000
vt 0.843750 1.000000
vt 0.843750 0.500000
vt 0.812500 1.000000
vt 0.812500 0.500000
vt 0.781250 1.000000
vt 0.781250 0.500000
vt 0.750000 1.000000
vt 0.750000 0.500000
vt 0.718750 1.000000
vt 0.718750 0.500000
vt 0.687500 1.000000
vt 0.687500 0.500000
vt 0.656250 1.000000
vt 0.656250 0.500000
vt 0.625000 1.000000
vt 0.625000 0.500000
vt 0.593750 1.000000
vt 0.593750 0.500000
vt 0.562500 1.000000
vt 0.562500 0.500000
vt 0.531250 1.000000
vt 0.531250 0.500000
vt 0.500000 1.000000
vt 0.500000 0.500000
vt 0.468750 1.000000
vt 0.468750 0.500000
vt 0.437500 1.000000
vt 0.437500 0.500000
vt 0.406250 1.000000
vt 0.406250 0.500000
vt 0.375000 1.000000
vt 0.375000 0.500000
vt 0.343750 1.000000
vt 0.343750 0.500000
vt 0.312500 1.000000
vt 0.312500 0.500000
vt 0.281250 1.000000
vt 0.281250 0.500000
vt 0.250000 1.000000
vt 0.250000 0.500000
vt 0.218750 1.000000
vt 0.218750 0.500000
vt 0.187500 1.000000
vt 0.187500 0.500000
vt 0.156250 1.000000
vt 0.156250 0.500000
vt 0.125000 1.000000
vt 0.125000 0.500000
vt 0.093750 1.000000
vt 0.093750 0.500000
vt 0.062500 1.000000
vt 0.062500 0.500000
vt 0.296822 0.485388
vt 0.250000 0.490000
vt 0.203178 0.485388
vt 0.158156 0.471731
vt 0.116663 0.449553
vt 0.080294 0.419706
vt 0.050447 0.383337
vt 0.028269 0.341844
vt 0.014612 0.296822
vt 0.010000 0.250000
vt 0.014612 0.203178
vt 0.028269 0.158156
vt 0.050447 0.116663
vt 0.080294 0.080294
vt 0.116663 0.050447
vt 0.158156 0.028269
vt 0.203178 0.014612
vt 0.250000 0.010000
vt 0.296822 0.014612
vt 0.341844 0.028269
vt 0.383337 0.050447
vt 0.419706 0.080294
vt 0.449553 0.116663
vt 0.471731 0.158156
vt 0.485388 0.203178
vt 0.490000 0.250000
vt 0.485388 0.296822
vt 0.471731 0.341844
vt 0.449553 0.383337
vt 0.419706 0.419706
vt 0.383337 0.449553
vt 0.341844 0.471731
vt 0.031250 1.000000
vt 0.031250 0.500000
vt 0.000000 1.000000
vt 0.000000 0.500000
vt 0.750000 0.490000
vt 0.796822 0.485388
vt 0.841844 0.471731
vt 0.883337 0.449553
vt 0.919706 0.419706
vt 0.949553 0.383337
vt 0.971731 0.341844
vt 0.985388 0.296822
vt 0.990000 0.250000
vt 0.985388 0.203178
vt 0.971731 0.158156
vt 0.949553 0.116663
vt 0.919706 0.080294
vt 0.883337 0.050447
vt 0.841844 0.028269
vt 0.796822 0.014612
vt 0.750000 0.010000
vt 0.703178 0.014612
vt 0.658156 0.028269
vt 0.616663 0.050447
vt 0.580294 0.080294
vt 0.550447 0.116663
vt 0.528269 0.158156
vt 0.514612 0.203178
vt 0.510000 0.250000
vt 0.514612 0.296822
vt 0.528269 0.341844
vt 0.550447 0.383337
vt 0.580294 0.419706
vt 0.616663 0.449553
vt 0.658156 0.471731
vt 0.703178 0.485388
vt 0.751953 0.626953
vt 0.748047 0.626953
vt 0.748047 0.623047
vt 0.751953 0.623047
vt 0.498047 0.500000
vt 0.498047 0.750000
vt 0.375000 0.750000
vt 0.375000 0.000000
vt 0.498047 0.000000
vt 0.498047 0.250000
vt 0.375000 0.250000
vt 0.125000 0.750000
vt 0.767907 0.607093
vt 0.767907 0.642907
vt 0.787278 0.587722
vt 0.787278 0.662278
vt 0.805683 0.569317
vt 0.805683 0.680683
vt 0.822668 0.552332
vt 0.822668 0.697668
vt 0.875000 0.537184
vt 0.875000 0.712816
vt 0.625000 0.037184
vt 0.625000 0.212816
vt 0.572668 0.225754
vt 0.572668 0.024246
vt 0.555683 0.236163
vt 0.555683 0.013837
vt 0.537278 0.243786
vt 0.537278 0.006214
vt 0.517907 0.248437
vt 0.517907 0.001563
vt 0.732093 0.607093
vt 0.712722 0.587722
vt 0.694317 0.569317
vt 0.677332 0.552332
vt 0.662184 0.500000
vt 0.837816 0.500000
vt 0.625000 0.287184
vt 0.625000 0.462816
vt 0.572668 0.475754
vt 0.572668 0.274246
vt 0.555683 0.486163
vt 0.555683 0.263837
vt 0.537278 0.493787
vt 0.537278 0.256213
vt 0.517907 0.498437
vt 0.517907 0.251563
vt 0.732093 0.642907
vt 0.712722 0.662278
vt 0.694317 0.680683
vt 0.677332 0.697668
vt 0.625000 0.712816
vt 0.625000 0.537184
vt 0.572668 0.725754
vt 0.572668 0.524246
vt 0.555683 0.736163
vt 0.555683 0.513837
vt 0.537278 0.743786
vt 0.537278 0.506214
vt 0.517907 0.748437
vt 0.517907 0.501563
vt 0.837816 0.750000
vt 0.662184 0.750000
vt 0.625000 0.787184
vt 0.625000 0.962816
vt 0.572668 0.975754
vt 0.572668 0.774246
vt 0.555683 0.986163
vt 0.555683 0.763837
vt 0.537278 0.993787
vt 0.537278 0.756213
vt 0.517907 0.998437
vt 0.517907 0.751563
vt 0.498047 1.000000
vt 0.498047 0.750000
vt 0.625000 0.000000
vt 0.625000 0.250000
vt 0.625000 0.750000
vt 0.875000 0.750000
s 0
f 65/131/35 66/132/35 68/133/35 67/134/35
f 67/134/36 68/133/36 70/135/36 69/136/36
f 69/136/37 70/135/37 72/137/37 71/138/37
f 71/138/38 72/137/38 74/139/38 73/140/38
f 73/140/39 74/139/39 76/141/39 75/142/39
f 75/142/40 76/141/40 78/143/40 77/144/40
f 77/144/41 78/143/41 80/145/41 79/146/41
f 79/146/42 80/145/42 82/147/42 81/148/42
f 81/148/43 82/147/43 84/149/43 83/150/43
f 83/150/44 84/149/44 86/151/44 85/152/44
f 85/152/45 86/151/45 88/153/45 87/154/45
f 87/154/46 88/153/46 90/155/46 89/156/46
f 89/156/47 90/155/47 92/157/47 91/158/47
f 91/158/48 92/157/48 94/159/48 93/160/48
f 93/160/49 94/159/49 96/161/49 95/162/49
f 95/162/50 96/161/50 98/163/50 97/164/50
f 97/164/51 98/163/51 100/165/51 99/166/51
f 99/166/52 100/165/52 102/167/52 101/168/52
f 101/168/53 102/167/53 104/169/53 103/170/53
f 103/170/54 104/169/54 106/171/54 105/172/54
f 105/172/55 106/171/55 108/173/55 107/174/55
f 107/174/56 108/173/56 110/175/56 109/176/56
f 109/176/57 110/175/57 112/177/57 111/178/57
f 111/178/58 112/177/58 114/179/58 113/180/58
f 113/180/59 114/179/59 116/181/59 115/182/59
f 115/182/60 116/181/60 118/183/60 117/184/60
f 117/184/61 118/183/61 120/185/61 119/186/61
f 119/186/62 120/185/62 122/187/62 121/188/62
f 121/188/63 122/187/63 124/189/63 123/190/63
f 123/190/64 124/189/64 126/191/64 125/192/64
f 68/193/65 66/194/65 128/195/65 126/196/65 124/197/65 122/198/65 120/199/65 118/200/65 116/201/65 114/202/65 112/203/65 110/204/65 108/205/65 106/206/65 104/207/65 102/208/65 100/209/65 98/210/65 96/211/65 94/212/65 92/213/65 90/214/65 88/215/65 86/216/65 84/217/65 82/218/65 80/219/65 78/220/65 76/221/65 74/222/65 72/223/65 70/224/65
f 125/192/66 126/191/66 128/225/66 127/226/66
f 127/226/67 128/225/67 66/227/67 65/228/67
f 65/229/68 67/230/68 69/231/68 71/232/68 73/233/68 75/234/68 77/235/68 79/236/68 81/237/68 83/238/68 85/239/68 87/240/68 89/241/68 91/242/68 93/243/68 95/244/68 97/245/68 99/246/68 101/247/68 103/248/68 105/249/68 107/250/68 109/251/68 111/252/68 113/253/68 115/254/68 117/255/68 119/256/68 121/257/68 123/258/68 125/259/68 127/260/68
f 166/261/65 144/262/65 133/263/65 155/264/65
f 132/172/69 167/265/69 156/266/69 131/267/69
f 129/268/70 134/269/70 145/270/70 130/271/70
f 130/188/68 132/172/68 131/267/68 129/272/68
f 130/271/71 145/270/71 167/265/71 132/172/71
f 133/263/72 144/262/72 146/273/72 135/274/72
f 135/274/73 146/273/73 147/275/73 136/276/73
f 136/276/74 147/275/74 148/277/74 137/278/74
f 137/278/75 148/277/75 149/279/75 138/280/75
f 138/280/76 149/279/76 150/281/76 139/282/76
f 139/283/77 150/284/77 151/285/77 140/286/77
f 140/286/78 151/285/78 152/287/78 141/288/78
f 141/288/79 152/287/79 153/289/79 142/290/79
f 142/290/80 153/289/80 154/291/80 143/292/80
f 143/292/81 154/291/81 145/270/81 134/269/81
f 144/262/82 166/261/82 168/293/82 146/273/82
f 146/273/83 168/293/83 169/294/83 147/275/83
f 147/275/84 169/294/84 170/295/84 148/277/84
f 148/277/85 170/295/85 171/296/85 149/279/85
f 149/279/86 171/296/86 172/297/86 150/298/86
f 150/299/87 172/300/87 173/301/87 151/302/87
f 151/302/88 173/301/88 174/303/88 152/304/88
f 152/304/89 174/303/89 175/305/89 153/306/89
f 153/306/90 175/305/90 176/307/90 154/308/90
f 154/308/91 176/307/91 167/265/91 145/270/91
f 166/261/92 155/264/92 157/309/92 168/293/92
f 168/293/93 157/309/93 158/310/93 169/294/93
f 169/294/94 158/310/94 159/311/94 170/295/94
f 170/295/95 159/311/95 160/312/95 171/296/95
f 171/296/96 160/312/96 161/313/96 172/314/96
f 172/314/97 161/313/97 162/315/97 173/316/97
f 173/316/98 162/315/98 163/317/98 174/318/98
f 174/318/99 163/317/99 164/319/99 175/320/99
f 175/320/100 164/319/100 165/321/100 176/322/100
f 176/322/101 165/321/101 156/266/101 167/265/101
f 155/264/102 133/263/102 135/274/102 157/309/102
f 157/309/103 135/274/103 136/276/103 158/310/103
f 158/310/104 136/276/104 137/278/104 159/311/104
f 159/311/105 137/278/105 138/280/105 160/312/105
f 160/312/106 138/280/106 139/323/106 161/324/106
f 161/325/107 139/326/107 140/327/107 162/328/107
f 162/328/108 140/327/108 141/329/108 163/330/108
f 163/330/109 141/329/109 142/331/109 164/332/109
f 164/332/110 142/331/110 143/333/110 165/334/110
f 165/334/111 143/333/111 134/335/111 156/336/111
f 131/267/112 156/336/112 134/335/112 129/171/112
f 177/268/70 178/337/70 180/338/70 179/271/70
f 179/271/71 180/338/71 184/156/71 183/172/71
f 183/172/69 184/156/69 182/339/69 181/267/69
f 181/267/112 182/339/112 178/155/112 177/171/112
f 179/188/68 183/172/68 181/267/68 177/272/68
f 184/156/65 180/140/65 178/340/65 182/339/65
o Куб.002
v -0.542914 1.721190 -0.812205
v -0.542914 5.323806 -0.812205
v 0.542914 1.721190 -0.812205
v 0.542914 5.323806 -0.812205
v -0.514086 2.614780 -1.053326
v -0.542914 1.721190 -0.993519
v -0.570717 4.430216 -1.053326
v -0.542914 5.323806 -0.993519
v 0.591387 2.614780 -1.053326
v 0.542914 1.721190 -0.993519
v 0.542914 5.323806 -0.993519
v 0.500611 4.430216 -1.053326
v 0.000000 1.734495 0.884742
v 0.000000 1.736873 -0.886037
v 0.103223 1.743760 0.884755
v 0.103223 1.746138 -0.886025
v 0.202479 1.771198 0.884792
v 0.202479 1.773576 -0.885988
v 0.293954 1.815755 0.884851
v 0.293954 1.818133 -0.885928
v 0.374133 1.875719 0.884932
v 0.374133 1.878097 -0.885847
v 0.439934 1.948785 0.885030
v 0.439934 1.951163 -0.885749
v 0.488828 2.032146 0.885142
v 0.488828 2.034523 -0.885637
v 0.518937 2.122597 0.885263
v 0.518937 2.124975 -0.885516
v 0.529104 2.216663 0.885390
v 0.529104 2.219041 -0.885390
v 0.518937 2.310730 0.885516
v 0.518937 2.313107 -0.885263
v 0.488828 2.401181 0.885637
v 0.488828 2.403559 -0.885142
v 0.439934 2.484542 0.885749
v 0.439934 2.486919 -0.885030
v 0.374133 2.557608 0.885848
v 0.374133 2.559986 -0.884932
v 0.293954 2.617572 0.885928
v 0.293954 2.619950 -0.884851
v 0.202479 2.662129 0.885988
v 0.202479 2.664507 -0.884791
v 0.103223 2.689567 0.886025
v 0.103223 2.691945 -0.884755
v 0.000000 2.698832 0.886037
v 0.000000 2.701210 -0.884742
v -0.103223 2.689567 0.886025
v -0.103223 2.691945 -0.884755
v -0.202479 2.662129 0.885988
v -0.202479 2.664507 -0.884791
v -0.293954 2.617572 0.885928
v -0.293954 2.619950 -0.884851
v -0.374133 2.557608 0.885848
v -0.374133 2.559986 -0.884932
v -0.439934 2.484542 0.885749
v -0.439934 2.486919 -0.885030
v -0.488828 2.401181 0.885637
v -0.488828 2.403559 -0.885142
v -0.518937 2.310730 0.885516
v -0.518937 2.313107 -0.885263
v -0.529104 2.216663 0.885390
v -0.529104 2.219041 -0.885390
v -0.518937 2.122597 0.885263
v -0.518937 2.124975 -0.885516
v -0.488828 2.032146 0.885142
v -0.488828 2.034523 -0.885637
v -0.439934 1.948785 0.885030
v -0.439934 1.951163 -0.885749
v -0.374133 1.875719 0.884932
v -0.374133 1.878097 -0.885847
v -0.293954 1.815755 0.884851
v -0.293954 1.818133 -0.885928
v -0.202479 1.771198 0.884792
v -0.202479 1.773576 -0.885988
v -0.103223 1.743760 0.884755
v -0.103223 1.746138 -0.886025
vn -0.0000 -0.0000 -1.0000
vn -0.0000 1.0000 -0.0000
vn -0.0000 -0.0000 1.0000
vn -1.0000 -0.0000 -0.0000
vn 1.0000 -0.0000 -0.0000
vn -0.9999 -0.0105 -0.0086
vn -0.0000 -0.0668 -0.9978
vn -0.0000 0.0668 -0.9978
vn 0.9985 0.0167 0.0515
vn -0.0000 -1.0000 -0.0000
vn 0.0894 -0.9960 -0.0013
vn 0.2664 -0.9638 -0.0013
vn 0.4379 -0.8990 -0.0012
vn 0.5989 -0.8008 -0.0011
vn 0.7431 -0.6692 -0.0009
vn 0.8626 -0.5059 -0.0007
vn 0.9488 -0.3158 -0.0004
vn 0.9942 -0.1075 -0.0001
vn 0.9942 0.1075 0.0001
vn 0.9488 0.3158 0.0004
vn 0.8626 0.5059 0.0007
vn 0.7431 0.6692 0.0009
vn 0.5989 0.8008 0.0011
vn 0.4379 0.8990 0.0012
vn 0.2664 0.9638 0.0013
vn 0.0894 0.9960 0.0013
vn -0.0894 0.9960 0.0013
vn -0.2664 0.9638 0.0013
vn -0.4379 0.8990 0.0012
vn -0.5989 0.8008 0.0011
vn -0.7431 0.6692 0.0009
vn -0.8626 0.5059 0.0007
vn -0.9488 0.3158 0.0004
vn -0.9942 0.1075 0.0001
vn -0.9942 -0.1075 -0.0001
vn -0.9488 -0.3158 -0.0004
vn -0.8626 -0.5059 -0.0007
vn -0.7431 -0.6692 -0.0009
vn -0.5989 -0.8008 -0.0011
vn -0.4379 -0.8990 -0.0012
vn -0.0000 0.0013 -1.0000
vn -0.2664 -0.9638 -0.0013
vn -0.0894 -0.9960 -0.0013
vn -0.0000 -0.0013 1.0000
vt 0.437010 0.312010
vt 0.562990 0.312010
vt 0.562990 0.437990
vt 0.437010 0.437990
vt 0.625000 0.562010
vt 0.875000 0.562010
vt 0.875000 0.750000
vt 0.625000 0.750000
vt 0.375000 0.750000
vt 0.625000 1.000000
vt 0.375000 1.000000
vt 0.375000 0.000000
vt 0.625000 0.000000
vt 0.625000 0.187990
vt 0.375000 0.187990
vt 0.375000 0.562010
vt 0.375000 0.500000
vt 0.375000 0.250000
vt 0.625000 0.250000
vt 0.625000 0.500000
vt 0.125000 0.562010
vt 0.125000 0.750000
vt 1.000000 0.500000
vt 1.000000 1.000000
vt 0.968750 1.000000
vt 0.968750 0.500000
vt 0.937500 1.000000
vt 0.937500 0.500000
vt 0.906250 1.000000
vt 0.906250 0.500000
vt 0.875000 1.000000
vt 0.875000 0.500000
vt 0.843750 1.000000
vt 0.843750 0.500000
vt 0.812500 1.000000
vt 0.812500 0.500000
vt 0.781250 1.000000
vt 0.781250 0.500000
vt 0.750000 1.000000
vt 0.750000 0.500000
vt 0.718750 1.000000
vt 0.718750 0.500000
vt 0.687500 1.000000
vt 0.687500 0.500000
vt 0.656250 1.000000
vt 0.656250 0.500000
vt 0.593750 1.000000
vt 0.593750 0.500000
vt 0.562500 1.000000
vt 0.562500 0.500000
vt 0.531250 1.000000
vt 0.531250 0.500000
vt 0.500000 1.000000
vt 0.500000 0.500000
vt 0.468750 1.000000
vt 0.468750 0.500000
vt 0.437500 1.000000
vt 0.437500 0.500000
vt 0.406250 1.000000
vt 0.406250 0.500000
vt 0.343750 1.000000
vt 0.343750 0.500000
vt 0.312500 1.000000
vt 0.312500 0.500000
vt 0.281250 1.000000
vt 0.281250 0.500000
vt 0.250000 1.000000
vt 0.250000 0.500000
vt 0.218750 1.000000
vt 0.218750 0.500000
vt 0.187500 1.000000
vt 0.187500 0.500000
vt 0.156250 1.000000
vt 0.156250 0.500000
vt 0.125000 1.000000
vt 0.125000 0.500000
vt 0.093750 1.000000
vt 0.093750 0.500000
vt 0.062500 1.000000
vt 0.062500 0.500000
vt 0.296822 0.485388
vt 0.250000 0.490000
vt 0.203178 0.485388
vt 0.158156 0.471731
vt 0.116663 0.449553
vt 0.080294 0.419706
vt 0.050447 0.383337
vt 0.028269 0.341844
vt 0.014612 0.296822
vt 0.010000 0.250000
vt 0.014612 0.203178
vt 0.028269 0.158156
vt 0.050447 0.116663
vt 0.080294 0.080294
vt 0.116663 0.050447
vt 0.158156 0.028269
vt 0.203178 0.014612
vt 0.250000 0.010000
vt 0.296822 0.014612
vt 0.341844 0.028269
vt 0.383337 0.050447
vt 0.419706 0.080294
vt 0.449553 0.116663
vt 0.471731 0.158156
vt 0.485388 0.203178
vt 0.490000 0.250000
vt 0.485388 0.296822
vt 0.471731 0.341844
vt 0.449553 0.383337
vt 0.419706 0.419706
vt 0.383337 0.449553
vt 0.341844 0.471731
vt 0.031250 1.000000
vt 0.031250 0.500000
vt 0.000000 1.000000
vt 0.000000 0.500000
vt 0.750000 0.490000
vt 0.796822 0.485388
vt 0.841844 0.471731
vt 0.883337 0.449553
vt 0.919706 0.419706
vt 0.949553 0.383337
vt 0.971731 0.341844
vt 0.985388 0.296822
vt 0.990000 0.250000
vt 0.985388 0.203178
vt 0.971731 0.158156
vt 0.949553 0.116663
vt 0.919706 0.080294
vt 0.883337 0.050447
vt 0.841844 0.028269
vt 0.796822 0.014612
vt 0.750000 0.010000
vt 0.703178 0.014612
vt 0.658156 0.028269
vt 0.616663 0.050447
vt 0.580294 0.080294
vt 0.550447 0.116663
vt 0.528269 0.158156
vt 0.514612 0.203178
vt 0.510000 0.250000
vt 0.514612 0.296822
vt 0.528269 0.341844
vt 0.550447 0.383337
vt 0.580294 0.419706
vt 0.616663 0.449553
vt 0.658156 0.471731
vt 0.703178 0.485388
s 0
f 189/341/113 191/342/113 196/343/113 193/344/113
f 195/345/114 192/346/114 186/347/114 188/348/114
f 187/349/115 188/348/115 186/350/115 185/351/115
f 185/352/116 186/353/116 192/354/116 190/355/116
f 194/356/117 195/345/117 188/348/117 187/349/117
f 191/342/118 189/341/118 190/355/118 192/354/118
f 194/357/119 190/358/119 189/341/119 193/344/119
f 192/359/120 195/360/120 196/343/120 191/342/120
f 195/345/121 194/356/121 193/344/121 196/343/121
f 190/361/122 194/356/122 187/349/122 185/362/122
f 197/363/123 198/364/123 200/365/123 199/366/123
f 199/366/124 200/365/124 202/367/124 201/368/124
f 201/368/125 202/367/125 204/369/125 203/370/125
f 203/370/126 204/369/126 206/371/126 205/372/126
f 205/372/127 206/371/127 208/373/127 207/374/127
f 207/374/128 208/373/128 210/375/128 209/376/128
f 209/376/129 210/375/129 212/377/129 211/378/129
f 211/378/130 212/377/130 214/379/130 213/380/130
f 213/380/131 214/379/131 216/381/131 215/382/131
f 215/382/132 216/381/132 218/383/132 217/384/132
f 217/384/133 218/383/133 220/385/133 219/386/133
f 219/386/134 220/385/134 222/350/134 221/360/134
f 221/360/135 222/350/135 224/387/135 223/388/135
f 223/388/136 224/387/136 226/389/136 225/390/136
f 225/390/137 226/389/137 228/391/137 227/392/137
f 227/392/138 228/391/138 230/393/138 229/394/138
f 229/394/139 230/393/139 232/395/139 231/396/139
f 231/396/140 232/395/140 234/397/140 233/398/140
f 233/398/141 234/397/141 236/399/141 235/400/141
f 235/400/142 236/399/142 238/351/142 237/357/142
f 237/357/143 238/351/143 240/401/143 239/402/143
f 239/402/144 240/401/144 242/403/144 241/404/144
f 241/404/145 242/403/145 244/405/145 243/406/145
f 243/406/146 244/405/146 246/407/146 245/408/146
f 245/408/147 246/407/147 248/409/147 247/410/147
f 247/410/148 248/409/148 250/411/148 249/412/148
f 249/412/149 250/411/149 252/413/149 251/414/149
f 251/414/150 252/413/150 254/415/150 253/416/150
f 253/416/151 254/415/151 256/417/151 255/418/151
f 255/418/152 256/417/152 258/419/152 257/420/152
f 200/421/153 198/422/153 260/423/153 258/424/153 256/425/153 254/426/153 252/427/153 250/428/153 248/429/153 246/430/153 244/431/153 242/432/153 240/433/153 238/434/153 236/435/153 234/436/153 232/437/153 230/438/153 228/439/153 226/440/153 224/441/153 222/442/153 220/443/153 218/444/153 216/445/153 214/446/153 212/447/153 210/448/153 208/449/153 206/450/153 204/451/153 202/452/153
f 257/420/154 258/419/154 260/453/154 259/454/154
f 259/454/155 260/453/155 198/455/155 197/456/155
f 197/457/156 199/458/156 201/459/156 203/460/156 205/461/156 207/462/156 209/463/156 211/464/156 213/465/156 215/466/156 217/467/156 219/468/156 221/469/156 223/470/156 225/471/156 227/472/156 229/473/156 231/474/156 233/475/156 235/476/156 237/477/156 239/478/156 241/479/156 243/480/156 245/481/156 247/482/156 249/483/156 251/484/156 253/485/156 255/486/156 257/487/156 259/488/156
o Цилиндр.003
v -0.490166 5.741493 -0.853901
v -0.983637 5.738038 -0.853901
v -0.490951 5.853572 -0.842318
v -0.984422 5.850118 -0.842318
v -0.491705 5.961345 -0.808015
v -0.985176 5.957890 -0.808015
v -0.492401 6.060668 -0.752310
v -0.985872 6.057213 -0.752310
v -0.493010 6.147726 -0.677344
v -0.986481 6.144271 -0.677344
v -0.493510 6.219172 -0.585997
v -0.986981 6.215717 -0.585997
v -0.493882 6.272262 -0.481781
v -0.987353 6.268807 -0.481781
v -0.494111 6.304954 -0.368699
v -0.987582 6.301499 -0.368699
v -0.494188 6.315993 -0.251098
v -0.987659 6.312538 -0.251098
v -0.494111 6.304954 -0.133497
v -0.987582 6.301499 -0.133497
v -0.493882 6.272262 -0.020416
v -0.987353 6.268807 -0.020416
v -0.493510 6.219172 0.083801
v -0.986981 6.215717 0.083801
v -0.493010 6.147726 0.175148
v -0.986481 6.144271 0.175148
v -0.492401 6.060668 0.250114
v -0.985872 6.057213 0.250114
v -0.491705 5.961345 0.305819
v -0.985176 5.957890 0.305819
v -0.490951 5.853572 0.340122
v -0.984422 5.850118 0.340122
v -0.490166 5.741493 0.351704
v -0.983637 5.738038 0.351704
v -0.489381 5.629414 0.340122
v -0.982852 5.625959 0.340122
v -0.488627 5.521642 0.305819
v -0.982098 5.518187 0.305819
v -0.487931 5.422318 0.250114
v -0.981402 5.418863 0.250114
v -0.487322 5.335260 0.175148
v -0.980793 5.331805 0.175148
v -0.486822 5.263814 0.083801
v -0.980293 5.260359 0.083801
v -0.486450 5.210724 -0.020416
v -0.979921 5.207270 -0.020416
v -0.486221 5.178032 -0.133497
v -0.979692 5.174577 -0.133497
v -0.486144 5.166993 -0.251098
v -0.979615 5.163538 -0.251098
v -0.486221 5.178032 -0.368699
v -0.979692 5.174577 -0.368699
v -0.486450 5.210724 -0.481781
v -0.979921 5.207270 -0.481781
v -0.486822 5.263814 -0.585997
v -0.980293 5.260359 -0.585997
v -0.487322 5.335260 -0.677344
v -0.980793 5.331805 -0.677344
v -0.487931 5.422318 -0.752310
v -0.981402 5.418863 -0.752310
v -0.488627 5.521642 -0.808015
v -0.982098 5.518187 -0.808015
v -0.489381 5.629414 -0.842318
v -0.982852 5.625959 -0.842318
v -1.028169 4.688268 0.181572
v -1.028169 5.296673 0.181572
v -1.028169 4.688268 -0.815006
v -1.028169 5.296673 -0.815006
v 0.692579 4.688268 0.181572
v 0.692579 5.296673 0.181572
v 0.692579 4.688268 -0.815006
v 0.692579 5.296673 -0.815006
v -0.809605 5.736126 -0.552893
v -4.424580 5.721974 -0.552893
v -0.809813 5.789348 -0.546932
v -4.424788 5.775196 -0.546932
v -0.810014 5.840524 -0.529277
v -4.424988 5.826372 -0.529277
v -0.810198 5.887688 -0.500609
v -4.425173 5.873537 -0.500609
v -0.810360 5.929028 -0.462027
v -4.425335 5.914876 -0.462027
v -0.810493 5.962955 -0.415015
v -4.425468 5.948803 -0.415015
v -0.810592 5.988164 -0.361379
v -4.425567 5.974013 -0.361379
v -0.810652 6.003688 -0.303181
v -4.425627 5.989537 -0.303181
v -0.810673 6.008930 -0.242657
v -4.425648 5.994779 -0.242657
v -0.810652 6.003688 -0.182133
v -4.425627 5.989537 -0.182133
v -0.810592 5.988164 -0.123935
v -4.425567 5.974013 -0.123935
v -0.810493 5.962955 -0.070300
v -4.425468 5.948803 -0.070300
v -0.810360 5.929028 -0.023288
v -4.425335 5.914876 -0.023288
v -0.810198 5.887688 0.015294
v -4.425173 5.873537 0.015294
v -0.810014 5.840524 0.043963
v -4.424988 5.826372 0.043963
v -0.809813 5.789348 0.061617
v -4.424788 5.775196 0.061617
v -0.809605 5.736126 0.067578
v -4.424580 5.721974 0.067578
v -0.809397 5.682904 0.061617
v -4.424372 5.668753 0.061617
v -0.809196 5.631728 0.043963
v -4.424171 5.617577 0.043963
v -0.809012 5.584564 0.015294
v -4.423987 5.570413 0.015294
v -0.808850 5.543224 -0.023288
v -4.423825 5.529073 -0.023288
v -0.808717 5.509297 -0.070300
v -4.423692 5.495146 -0.070300
v -0.808618 5.484088 -0.123935
v -4.423594 5.469936 -0.123935
v -0.808558 5.468564 -0.182133
v -4.423532 5.454412 -0.182133
v -0.808537 5.463322 -0.242657
v -4.423512 5.449170 -0.242657
v -0.808558 5.468564 -0.303181
v -4.423532 5.454412 -0.303181
v -0.808618 5.484088 -0.361379
v -4.423594 5.469936 -0.361379
v -0.808717 5.509297 -0.415015
v -4.423692 5.495146 -0.415015
v -0.808850 5.543224 -0.462027
v -4.423825 5.529073 -0.462027
v -0.809012 5.584564 -0.500609
v -4.423987 5.570413 -0.500609
v -0.809196 5.631728 -0.529277
v -4.424171 5.617577 -0.529277
v -0.809397 5.682904 -0.546932
v -4.424372 5.668753 -0.546932
vn -0.0007 0.1028 -0.9947
vn -0.0021 0.3033 -0.9529
vn -0.0034 0.4891 -0.8722
vn -0.0046 0.6525 -0.7578
vn -0.0055 0.7877 -0.6161
vn -0.0062 0.8910 -0.4539
vn -0.0067 0.9606 -0.2777
vn -0.0070 0.9956 -0.0935
vn -0.0070 0.9956 0.0935
vn -0.0067 0.9606 0.2777
vn -0.0062 0.8910 0.4539
vn -0.0055 0.7877 0.6161
vn -0.0046 0.6525 0.7578
vn -0.0034 0.4891 0.8722
vn -0.0021 0.3033 0.9529
vn -0.0007 0.1028 0.9947
vn 0.0007 -0.1028 0.9947
vn 0.0021 -0.3033 0.9529
vn 0.0034 -0.4891 0.8722
vn 0.0046 -0.6525 0.7578
vn 0.0055 -0.7877 0.6161
vn 0.0062 -0.8910 0.4539
vn 0.0067 -0.9606 0.2777
vn 0.0070 -0.9956 0.0935
vn 0.0070 -0.9956 -0.0935
vn 0.0067 -0.9606 -0.2777
vn 0.0062 -0.8910 -0.4539
vn 0.0055 -0.7877 -0.6161
vn 0.0046 -0.6525 -0.7578
vn 0.0034 -0.4891 -0.8722
vn -1.0000 -0.0070 -0.0000
vn 0.0021 -0.3033 -0.9529
vn 0.0007 -0.1028 -0.9947
vn 1.0000 0.0070 -0.0000
vn -1.0000 -0.0000 -0.0000
vn -0.0000 -0.0000 -1.0000
vn 1.0000 -0.0000 -0.0000
vn -0.0000 -0.0000 1.0000
vn -0.0000 -1.0000 -0.0000
vn -0.0000 1.0000 -0.0000
vn -0.0004 0.1113 -0.9938
vn -0.0013 0.3261 -0.9453
vn -0.0020 0.5194 -0.8545
vn -0.0027 0.6823 -0.7311
vn -0.0032 0.8109 -0.5852
vn -0.0035 0.9050 -0.4254
vn -0.0038 0.9662 -0.2577
vn -0.0039 0.9963 -0.0863
vn -0.0039 0.9963 0.0863
vn -0.0038 0.9662 0.2577
vn -0.0035 0.9050 0.4254
vn -0.0032 0.8109 0.5852
vn -0.0027 0.6823 0.7311
vn -0.0020 0.5194 0.8545
vn -0.0013 0.3261 0.9453
vn -0.0004 0.1113 0.9938
vn 0.0004 -0.1113 0.9938
vn 0.0013 -0.3261 0.9453
vn 0.0020 -0.5194 0.8545
vn 0.0027 -0.6823 0.7311
vn 0.0032 -0.8109 0.5852
vn 0.0035 -0.9050 0.4254
vn 0.0038 -0.9662 0.2577
vn 0.0039 -0.9963 0.0863
vn 0.0039 -0.9963 -0.0863
vn 0.0038 -0.9662 -0.2577
vn 0.0035 -0.9050 -0.4254
vn 0.0032 -0.8109 -0.5852
vn 0.0027 -0.6823 -0.7311
vn 0.0020 -0.5194 -0.8545
vn -1.0000 -0.0039 -0.0000
vn 0.0013 -0.3261 -0.9453
vn 0.0004 -0.1113 -0.9938
vn 1.0000 0.0039 -0.0000
vt 1.000000 0.500000
vt 1.000000 1.000000
vt 0.968750 1.000000
vt 0.968750 0.500000
vt 0.937500 1.000000
vt 0.937500 0.500000
vt 0.906250 1.000000
vt 0.906250 0.500000
vt 0.875000 1.000000
vt 0.875000 0.500000
vt 0.843750 1.000000
vt 0.843750 0.500000
vt 0.812500 1.000000
vt 0.812500 0.500000
vt 0.781250 1.000000
vt 0.781250 0.500000
vt 0.750000 1.000000
vt 0.750000 0.500000
vt 0.718750 1.000000
vt 0.718750 0.500000
vt 0.687500 1.000000
vt 0.687500 0.500000
vt 0.656250 1.000000
vt 0.656250 0.500000
vt 0.625000 1.000000
vt 0.625000 0.500000
vt 0.593750 1.000000
vt 0.593750 0.500000
vt 0.562500 1.000000
vt 0.562500 0.500000
vt 0.531250 1.000000
vt 0.531250 0.500000
vt 0.500000 1.000000
vt 0.500000 0.500000
vt 0.468750 1.000000
vt 0.468750 0.500000
vt 0.437500 1.000000
vt 0.437500 0.500000
vt 0.406250 1.000000
vt 0.406250 0.500000
vt 0.375000 1.000000
vt 0.375000 0.500000
vt 0.343750 1.000000
vt 0.343750 0.500000
vt 0.312500 1.000000
vt 0.312500 0.500000
vt 0.281250 1.000000
vt 0.281250 0.500000
vt 0.250000 1.000000
vt 0.250000 0.500000
vt 0.218750 1.000000
vt 0.218750 0.500000
vt 0.187500 1.000000
vt 0.187500 0.500000
vt 0.156250 1.000000
vt 0.156250 0.500000
vt 0.125000 1.000000
vt 0.125000 0.500000
vt 0.093750 1.000000
vt 0.093750 0.500000
vt 0.062500 1.000000
vt 0.062500 0.500000
vt 0.296822 0.485388
vt 0.250000 0.490000
vt 0.203178 0.485388
vt 0.158156 0.471731
vt 0.116663 0.449553
vt 0.080294 0.419706
vt 0.050447 0.383337
vt 0.028269 0.341844
vt 0.014612 0.296822
vt 0.010000 0.250000
vt 0.014612 0.203178
vt 0.028269 0.158156
vt 0.050447 0.116663
vt 0.080294 0.080294
vt 0.116663 0.050447
vt 0.158156 0.028269
vt 0.203178 0.014612
vt 0.250000 0.010000
vt 0.296822 0.014612
vt 0.341844 0.028269
vt 0.383337 0.050447
vt 0.419706 0.080294
vt 0.449553 0.116663
vt 0.471731 0.158156
vt 0.485388 0.203178
vt 0.490000 0.250000
vt 0.485388 0.296822
vt 0.471731 0.341844
vt 0.449553 0.383337
vt 0.419706 0.419706
vt 0.383337 0.449553
vt 0.341844 0.471731
vt 0.031250 1.000000
vt 0.031250 0.500000
vt 0.000000 1.000000
vt 0.000000 0.500000
vt 0.750000 0.490000
vt 0.796822 0.485388
vt 0.841844 0.471731
vt 0.883337 0.449553
vt 0.919706 0.419706
vt 0.949553 0.383337
vt 0.971731 0.341844
vt 0.985388 0.296822
vt 0.990000 0.250000
vt 0.985388 0.203178
vt 0.971731 0.158156
vt 0.949553 0.116663
vt 0.919706 0.080294
vt 0.883337 0.050447
vt 0.841844 0.028269
vt 0.796822 0.014612
vt 0.750000 0.010000
vt 0.703178 0.014612
vt 0.658156 0.028269
vt 0.616663 0.050447
vt 0.580294 0.080294
vt 0.550447 0.116663
vt 0.528269 0.158156
vt 0.514612 0.203178
vt 0.510000 0.250000
vt 0.514612 0.296822
vt 0.528269 0.341844
vt 0.550447 0.383337
vt 0.580294 0.419706
vt 0.616663 0.449553
vt 0.658156 0.471731
vt 0.703178 0.485388
vt 0.375000 0.000000
vt 0.625000 0.000000
vt 0.625000 0.250000
vt 0.375000 0.250000
vt 0.625000 0.750000
vt 0.375000 0.750000
vt 0.125000 0.750000
vt 0.875000 0.750000
s 0
f 261/489/157 262/490/157 264/491/157 263/492/157
f 263/492/158 264/491/158 266/493/158 265/494/158
f 265/494/159 266/493/159 268/495/159 267/496/159
f 267/496/160 268/495/160 270/497/160 269/498/160
f 269/498/161 270/497/161 272/499/161 271/500/161
f 271/500/162 272/499/162 274/501/162 273/502/162
f 273/502/163 274/501/163 276/503/163 275/504/163
f 275/504/164 276/503/164 278/505/164 277/506/164
f 277/506/165 278/505/165 280/507/165 279/508/165
f 279/508/166 280/507/166 282/509/166 281/510/166
f 281/510/167 282/509/167 284/511/167 283/512/167
f 283/512/168 284/511/168 286/513/168 285/514/168
f 285/514/169 286/513/169 288/515/169 287/516/169
f 287/516/170 288/515/170 290/517/170 289/518/170
f 289/518/171 290/517/171 292/519/171 291/520/171
f 291/520/172 292/519/172 294/521/172 293/522/172
f 293/522/173 294/521/173 296/523/173 295/524/173
f 295/524/174 296/523/174 298/525/174 297/526/174
f 297/526/175 298/525/175 300/527/175 299/528/175
f 299/528/176 300/527/176 302/529/176 301/530/176
f 301/530/177 302/529/177 304/531/177 303/532/177
f 303/532/178 304/531/178 306/533/178 305/534/178
f 305/534/179 306/533/179 308/535/179 307/536/179
f 307/536/180 308/535/180 310/537/180 309/538/180
f 309/538/181 310/537/181 312/539/181 311/540/181
f 311/540/182 312/539/182 314/541/182 313/542/182
f 313/542/183 314/541/183 316/543/183 315/544/183
f 315/544/184 316/543/184 318/545/184 317/546/184
f 317/546/185 318/545/185 320/547/185 319/548/185
f 319/548/186 320/547/186 322/549/186 321/550/186
f 264/551/187 262/552/187 324/553/187 322/554/187 320/555/187 318/556/187 316/557/187 314/558/187 312/559/187 310/560/187 308/561/187 306/562/187 304/563/187 302/564/187 300/565/187 298/566/187 296/567/187 294/568/187 292/569/187 290/570/187 288/571/187 286/572/187 284/573/187 282/574/187 280/575/187 278/576/187 276/577/187 274/578/187 272/579/187 270/580/187 268/581/187 266/582/187
f 321/550/188 322/549/188 324/583/188 323/584/188
f 323/584/189 324/583/189 262/585/189 261/586/189
f 261/587/190 263/588/190 265/589/190 267/590/190 269/591/190 271/592/190 273/593/190 275/594/190 277/595/190 279/596/190 281/597/190 283/598/190 285/599/190 287/600/190 289/601/190 291/602/190 293/603/190 295/604/190 297/605/190 299/606/190 301/607/190 303/608/190 305/609/190 307/610/190 309/611/190 311/612/190 313/613/190 315/614/190 317/615/190 319/616/190 321/617/190 323/618/190
f 325/619/191 326/620/191 328/621/191 327/622/191
f 327/622/192 328/621/192 332/514/192 331/530/192
f 331/530/193 332/514/193 330/623/193 329/624/193
f 329/624/194 330/623/194 326/513/194 325/529/194
f 327/546/195 331/530/195 329/624/195 325/625/195
f 332/514/196 328/498/196 326/626/196 330/623/196
f 333/489/197 334/490/197 336/491/197 335/492/197
f 335/492/198 336/491/198 338/493/198 337/494/198
f 337/494/199 338/493/199 340/495/199 339/496/199
f 339/496/200 340/495/200 342/497/200 341/498/200
f 341/498/201 342/497/201 344/499/201 343/500/201
f 343/500/202 344/499/202 346/501/202 345/502/202
f 345/502/203 346/501/203 348/503/203 347/504/203
f 347/504/204 348/503/204 350/505/204 349/506/204
f 349/506/205 350/505/205 352/507/205 351/508/205
f 351/508/206 352/507/206 354/509/206 353/510/206
f 353/510/207 354/509/207 356/511/207 355/512/207
f 355/512/208 356/511/208 358/513/208 357/514/208
f 357/514/209 358/513/209 360/515/209 359/516/209
f 359/516/210 360/515/210 362/517/210 361/518/210
f 361/518/211 362/517/211 364/519/211 363/520/211
f 363/520/212 364/519/212 366/521/212 365/522/212
f 365/522/213 366/521/213 368/523/213 367/524/213
f 367/524/214 368/523/214 370/525/214 369/526/214
f 369/526/215 370/525/215 372/527/215 371/528/215
f 371/528/216 372/527/216 374/529/216 373/530/216
f 373/530/217 374/529/217 376/531/217 375/532/217
f 375/532/218 376/531/218 378/533/218 377/534/218
f 377/534/219 378/533/219 380/535/219 379/536/219
f 379/536/220 380/535/220 382/537/220 381/538/220
f 381/538/221 382/537/221 384/539/221 383/540/221
f 383/540/222 384/539/222 386/541/222 385/542/222
f 385/542/223 386/541/223 388/543/223 387/544/223
f 387/544/224 388/543/224 390/545/224 389/546/224
f 389/546/225 390/545/225 392/547/225 391/548/225
f 391/548/226 392/547/226 394/549/226 393/550/226
f 336/551/227 334/552/227 396/553/227 394/554/227 392/555/227 390/556/227 388/557/227 386/558/227 384/559/227 382/560/227 380/561/227 378/562/227 376/563/227 374/564/227 372/565/227 370/566/227 368/567/227 366/568/227 364/569/227 362/570/227 360/571/227 358/572/227 356/573/227 354/574/227 352/575/227 350/576/227 348/577/227 346/578/227 344/579/227 342/580/227 340/581/227 338/582/227
f 393/550/228 394/549/228 396/583/228 395/584/228
f 395/584/229 396/583/229 334/585/229 333/586/229
f 333/587/230 335/588/230 337/589/230 339/590/230 341/591/230 343/592/230 345/593/230 347/594/230 349/595/230 351/596/230 353/597/230 355/598/230 357/599/230 359/600/230 361/601/230 363/602/230 365/603/230 367/604/230 369/605/230 371/606/230 373/607/230 375/608/230 377/609/230 379/610/230 381/611/230 383/612/230 385/613/230 387/614/230 389/615/230 391/616/230 393/617/230 395/618/230
